HIERARCHY
ROOT SpineBase
{
  OFFSET 0.000000 0.000000 0.000000
  CHANNELS 6 Xposition Yposition Zposition Zrotation Xrotation Yrotation
  JOINT SpineMid
  {
    OFFSET -0.000000 29.239544 0.000000
    CHANNELS 3 Zrotation Xrotation Yrotation
    JOINT SpineShoulder
    {
      OFFSET 0.091671 21.806806 -0.576148
      CHANNELS 3 Zrotation Xrotation Yrotation
      JOINT Neck
      {
        OFFSET 0.078809 7.218105 -0.462616
        CHANNELS 3 Zrotation Xrotation Yrotation
        JOINT Head
        {
          OFFSET -0.522030 11.280270 6.477314
          CHANNELS 3 Zrotation Xrotation Yrotation
          End Site
          {
            OFFSET 0 0 0
          }
        }
      }
      JOINT ShoulderLeft
      {
        OFFSET -8.640881 -5.304343 -9.048257
        CHANNELS 3 Zrotation Xrotation Yrotation
        JOINT ElbowLeft
        {
          OFFSET -6.078433 -22.096101 -5.694519
          CHANNELS 3 Zrotation Xrotation Yrotation
          JOINT WristLeft
          {
            OFFSET -2.074008 -20.806809 -1.891838
            CHANNELS 3 Zrotation Xrotation Yrotation
            JOINT HandLeft
            {
              OFFSET -0.633904 -3.428278 0.428398
              CHANNELS 3 Zrotation Xrotation Yrotation
              JOINT HandTipLeft
              {
                OFFSET -0.954400 -7.185801 0.374257
                CHANNELS 3 Zrotation Xrotation Yrotation
                End Site
                {
                  OFFSET 0 0 0
                }
              }
              JOINT ThumbLeft
              {
                OFFSET -2.139535 1.933471 -3.624879
                CHANNELS 3 Zrotation Xrotation Yrotation
                End Site
                {
                  OFFSET 0 0 0
                }
              }
            }
          }
        }
      }
      JOINT ShoulderRight
      {
        OFFSET 9.836462 -1.709233 3.349093
        CHANNELS 3 Zrotation Xrotation Yrotation
        JOINT ElbowRight
        {
          OFFSET -0.449052 -23.093984 -5.043570
          CHANNELS 3 Zrotation Xrotation Yrotation
          JOINT WristRight
          {
            OFFSET -0.659557 -21.950630 3.929371
            CHANNELS 3 Zrotation Xrotation Yrotation
            JOINT HandRight
            {
              OFFSET 2.156593 -5.047759 -0.820124
              CHANNELS 3 Zrotation Xrotation Yrotation
              JOINT HandTipRight
              {
                OFFSET -0.259029 -5.683334 -0.178078
                CHANNELS 3 Zrotation Xrotation Yrotation
                End Site
                {
                  OFFSET 0 0 0
                }
              }
              JOINT ThumbRight
              {
                OFFSET 0.540525 -0.869739 -0.499708
                CHANNELS 3 Zrotation Xrotation Yrotation
                End Site
                {
                  OFFSET 0 0 0
                }
              }
            }
          }
        }
      }
    }
  }
  JOINT HipLeft
  {
    OFFSET -4.143039 1.899800 -6.211936
    CHANNELS 3 Zrotation Xrotation Yrotation
    JOINT KneeLeft
    {
      OFFSET 7.933310 -26.965182 4.032416
      CHANNELS 3 Zrotation Xrotation Yrotation
      JOINT AnkleLeft
      {
        OFFSET -4.528900 -17.411338 -15.037867
        CHANNELS 3 Zrotation Xrotation Yrotation
        JOINT FootLeft
        {
          OFFSET 4.558389 -6.690800 -4.684992
          CHANNELS 3 Zrotation Xrotation Yrotation
          End Site
          {
            OFFSET 0 0 0
          }
        }
      }
    }
  }
  JOINT HipRight
  {
    OFFSET 4.755281 0.314984 -0.381214
    CHANNELS 3 Zrotation Xrotation Yrotation
    JOINT KneeRight
    {
      OFFSET -3.005073 -21.251500 -7.691117
      CHANNELS 3 Zrotation Xrotation Yrotation
      JOINT AnkleRight
      {
        OFFSET 1.336476 -28.369123 -5.001820
        CHANNELS 3 Zrotation Xrotation Yrotation
        JOINT FootRight
        {
          OFFSET 3.684436 -2.016804 -10.647781
          CHANNELS 3 Zrotation Xrotation Yrotation
          End Site
          {
            OFFSET 0 0 0
          }
        }
      }
    }
  }
}
MOTION
Frames: 9
Frame Time: 0.033333
-29.225063 58.621177 298.591526 0.000000 0.000000 -33.235263 0.000000 -0.000000 33.235263 -0.000000 0.000000 0.000000 -0.000000 0.000000 0.000000 0.000000 0.000000 0.000000 -0.000000 0.000000 0.000000 -0.000000 0.000000 0.000000 -0.000000 0.000000 0.000000 -0.000000 0.000000 0.000000 0.000000 0.000000 0.000000 0.000000 0.000000 0.000000 -0.000000 0.000000 0.000000 -0.000000 0.000000 0.000000 -0.000000 0.000000 0.000000 -0.000000 0.000000 0.000000 0.000000 0.000000 0.000000 0.000000 0.000000 0.000000 0.000000 -0.000000 33.235263 -0.000000 0.000000 0.000000 -0.000000 0.000000 0.000000 0.000000 0.000000 0.000000 0.000000 -0.000000 33.235263 -0.000000 0.000000 0.000000 -0.000000 0.000000 0.000000 0.000000 0.000000 0.000000
-29.372920 58.789372 299.328069 -0.311071 0.003863 -32.580293 0.264201 0.164250 32.579925 -0.000000 0.000000 0.000000 -0.000000 0.000000 0.000000 0.000000 0.000000 0.000000 -0.000000 0.000000 0.000000 0.705436 0.801382 -0.148954 -2.029691 -4.810764 0.644672 0.886302 5.449752 -0.797497 0.000000 0.000000 0.000000 0.000000 0.000000 0.000000 -0.000000 0.000000 0.000000 -0.000000 0.000000 0.000000 -2.806512 -2.563482 -0.712166 3.657835 -2.728994 0.805180 0.000000 0.000000 0.000000 0.000000 0.000000 0.000000 -7.334658 1.298669 33.312050 13.124477 -12.474970 -3.957297 -7.025102 9.903843 6.319692 0.000000 0.000000 0.000000 1.478623 -3.026441 33.341980 0.398386 8.790527 -0.390611 0.215860 -9.084349 -7.407023 0.000000 0.000000 0.000000
-29.526493 58.890663 300.001686 -0.588734 0.011328 -31.838846 0.506130 0.300949 31.837575 -0.000000 0.000000 0.000000 1.123090 -0.312750 -0.657050 0.000000 0.000000 0.000000 0.432739 1.253778 -0.460354 0.765410 0.135458 0.215705 -3.948075 -8.900847 1.016526 1.821917 10.077234 -1.459841 0.000000 0.000000 0.000000 0.000000 0.000000 0.000000 -0.000000 0.000000 0.000000 -0.000000 0.000000 0.000000 -5.098561 -4.039252 -1.104735 6.569959 -5.040213 1.131929 0.000000 0.000000 0.000000 0.000000 0.000000 0.000000 -13.296018 2.247855 33.231523 24.498221 -23.300894 -4.996343 -13.933465 19.083115 12.564433 0.000000 0.000000 0.000000 2.883209 -5.391618 33.185869 0.546133 15.276667 -0.631906 -0.321824 -16.325130 -13.245216 0.000000 0.000000 0.000000
-29.685781 58.925051 300.612376 -0.831555 0.022390 -31.008699 0.070116 -0.075406 30.987102 -0.011656 -0.175640 -0.030074 2.337577 -0.203595 -0.845580 0.000000 0.000000 0.000000 1.418163 1.940018 -0.579417 0.876916 0.065466 0.320525 -5.699004 -11.972328 1.120080 2.677528 13.418582 -1.899986 0.000000 0.000000 0.000000 0.000000 0.000000 0.000000 0.821807 0.254713 0.048074 -0.000000 0.000000 0.000000 -6.916582 -4.538040 -1.125364 8.764598 -7.086893 1.096920 0.000000 0.000000 0.000000 0.000000 0.000000 0.000000 -17.902961 2.878077 32.898680 34.147946 -31.650035 -4.013512 -20.026439 27.267588 18.182032 0.000000 0.000000 0.000000 4.229820 -7.225490 32.779297 0.392608 19.694906 -0.743607 -1.458095 -21.738205 -17.238545 0.000000 0.000000 0.000000
-29.850785 58.892534 301.160140 -1.038393 0.037015 -30.088992 0.098769 -0.090099 30.062274 0.003230 -0.216145 -0.036296 2.790729 -0.288949 -1.003724 0.000000 0.000000 0.000000 1.719749 2.294553 -0.690483 0.804036 -0.104369 0.421523 -7.204226 -13.837960 1.000483 3.342393 15.131699 -2.054307 0.000000 0.000000 0.000000 0.000000 0.000000 0.000000 1.327588 -0.848078 0.009216 -0.332814 1.155773 0.053446 -8.306243 -4.128147 -0.739713 10.282587 -8.941496 0.762126 0.000000 0.000000 0.000000 0.000000 0.000000 0.000000 -21.266437 3.216116 32.256011 41.865499 -37.466739 -1.989194 -24.785140 34.529596 22.750456 0.000000 0.000000 0.000000 5.542042 -8.625740 32.131960 -0.093948 22.222890 -0.728342 -3.006384 -25.449824 -19.018868 0.000000 0.000000 0.000000
-30.021505 58.793114 301.644977 -1.208411 0.055138 -29.080465 0.130280 -0.099824 29.049806 0.027533 -0.247285 -0.040376 3.079245 -0.382313 -1.099364 0.000000 0.000000 0.000000 1.932892 2.503333 -0.758668 0.545764 -0.377353 0.517083 -8.378015 -14.445784 0.730653 3.771363 15.068224 -1.916263 0.000000 0.000000 0.000000 0.000000 0.000000 0.000000 1.881162 -1.706898 -0.053852 -0.768301 2.050065 0.141104 -9.314706 -2.832249 0.078716 11.145275 -10.581275 0.140727 0.000000 0.000000 0.000000 0.000000 0.000000 0.000000 -23.511353 3.263535 31.266841 47.314317 -41.062603 0.201909 -27.793671 41.030654 25.925549 0.000000 0.000000 0.000000 6.850039 -9.663587 31.250777 -0.928800 22.942142 -0.589651 -4.732060 -27.604705 -17.998170 0.000000 0.000000 0.000000
-30.259072 58.534492 302.114439 -1.420379 0.110667 -27.251002 0.219046 -0.151304 27.216184 0.054128 -0.303246 -0.044497 3.218604 -0.621064 -1.115784 0.000000 0.000000 0.000000 2.054797 2.569080 -0.747783 0.070936 -0.838545 0.595156 -9.077426 -13.770120 0.388812 2.892909 11.979040 -1.236829 0.000000 0.000000 0.000000 0.000000 0.000000 0.000000 2.769424 -3.279137 -0.154255 -1.542148 3.702872 0.312355 -9.245929 2.712485 2.974624 8.857400 -13.098172 -2.089743 0.000000 0.000000 0.000000 0.000000 0.000000 0.000000 -23.826195 2.644211 28.808608 48.412697 -40.200259 0.358937 -26.237983 41.543296 24.154155 0.000000 0.000000 0.000000 8.429546 -10.568960 29.380871 -2.451454 21.409423 -0.245884 -5.345533 -26.254890 -12.662459 0.000000 0.000000 0.000000
-30.476389 58.248709 302.472712 -1.533252 0.198823 -25.688940 0.191439 -0.102909 25.652415 0.123970 -0.286046 -0.045193 3.122469 -1.298980 -1.043744 0.000000 0.000000 0.000000 2.105929 2.332348 -0.722034 -0.799137 -2.077543 0.765135 -8.427198 -10.952217 0.162808 3.091714 7.510854 -0.735027 0.000000 0.000000 0.000000 0.000000 0.000000 0.000000 3.673243 -5.144857 -0.240838 -1.767689 4.788405 0.609623 -10.294341 6.981638 4.930236 8.620896 -11.972470 -3.709023 0.000000 0.000000 0.000000 0.000000 0.000000 0.000000 -21.794459 1.100630 26.070026 43.229101 -36.144613 -0.122133 -18.919221 39.738606 17.294171 0.000000 0.000000 0.000000 9.923741 -11.216007 27.669769 -4.232954 18.045740 0.183268 -6.122115 -24.853035 -2.459990 0.000000 0.000000 0.000000
-30.601167 57.994441 302.777268 -1.504207 0.166582 -24.707407 0.157481 -0.080013 24.671080 0.176279 -0.266654 -0.041300 2.762732 -1.585238 -0.887393 0.000000 0.000000 0.000000 2.028710 2.131888 -0.671759 -1.021409 -2.747549 0.811630 -10.823975 -7.742599 -0.558073 4.256226 4.580263 -0.084879 0.000000 0.000000 0.000000 0.000000 0.000000 0.000000 4.478545 -6.669828 -0.325214 -2.062696 6.365414 0.874632 -11.322289 10.893436 7.002049 7.615363 -13.334475 -5.486498 0.000000 0.000000 0.000000 0.000000 0.000000 0.000000 -22.615373 0.100883 24.363880 43.665322 -36.289669 1.265469 -15.389247 46.982362 15.719540 0.000000 0.000000 0.000000 10.976913 -10.959835 26.290092 -5.541260 12.558170 0.427260 -6.358371 -22.037981 11.072113 0.000000 0.000000 0.000000
